<svg fill="none" viewBox="0 0 24 24" xmlns="http://www.w3.org/2000/svg">
  <path d="M 11.52 19.575 L 11.164 20.998 H 6.25 A 3.25 3.25 0 0 1 3 17.748 V 8.5 H 20.998 V 11.011 A 3.279 3.279 0 0 0 18.391 11.961 L 12.489 17.863 A 3.684 3.684 0 0 0 11.52 19.575 Z" fill="#87D6D6"/>
  <path d="M 20.998 6.25 A 3.25 3.25 0 0 0 17.748 3 H 6.25 A 3.25 3.25 0 0 0 3 6.25 V 7 H 20.998 V 6.25 Z" fill="#87D6D6"/>
  <path d="M 19.098 12.669 L 13.197 18.57 A 2.685 2.685 0 0 0 12.49 19.818 L 12.033 21.648 C 11.833 22.445 12.555 23.166 13.351 22.967 L 15.181 22.509 A 2.685 2.685 0 0 0 16.429 21.803 L 22.33 15.9 A 2.286 2.286 0 0 0 19.097 12.668 Z" fill="#30B4B4"/>
</svg>