<svg viewBox="0 0 512 512" width="512" height="512" xmlns="http://www.w3.org/2000/svg"><defs><linearGradient id="bq1" x1="0" y1="0" x2="256" y2="512" gradientUnits="userSpaceOnUse"><stop stop-color="#D7DDE8"/><stop offset="1" stop-color="#C4C8F0"/></linearGradient><filter id="aq1" x="0" y="0" width="512" height="512" filterUnits="userSpaceOnUse" color-interpolation-filters="sRGB"><feFlood flood-opacity="0" result="BackgroundImageFix"/><feBlend in="SourceGraphic" in2="BackgroundImageFix" result="shape"/><feColorMatrix in="SourceAlpha" values="0 0 0 0 0 0 0 0 0 0 0 0 0 0 0 0 0 0 127 0" result="hardAlpha"/><feOffset dx="-10" dy="-10"/><feGaussianBlur stdDeviation="10"/><feComposite in2="hardAlpha" operator="arithmetic" k2="-1" k3="1"/><feColorMatrix values="0 0 0 0 1 0 0 0 0 1 0 0 0 0 1 0 0 0 0.24 0"/><feBlend in2="shape" result="effect1_innerShadow_1_162"/></filter></defs><g filter="url(#aq1)"><path d="M180.16 356.44a22.73 22.73 0 0 1-21.36-14.64l-36.46-94.82a14.7 14.7 0 0 0-8.41-8.41l-94.85-36.49a22.88 22.88 0 0 1 0-42.72l94.82-36.46a14.7 14.7 0 0 0 8.41-8.41l36.49-94.85a22.88 22.88 0 0 1 42.72 0l36.46 94.82a14.7 14.7 0 0 0 8.41 8.41l94.27 36.27a23.33 23.33 0 0 1 15.22 22.06 22.72 22.72 0 0 1-14.64 20.89l-94.82 36.46a14.7 14.7 0 0 0-8.41 8.41l-36.49 94.85a22.73 22.73 0 0 1-21.36 14.64zm250.23-18.88a12.88 12.88 0 0 1-12.02-8.25l-14.81-38.5a6.4 6.4 0 0 0-3.7-3.7l-38.5-14.81a12.88 12.88 0 0 1 0-24.04l38.5-14.81a6.42 6.42 0 0 0 3.7-3.7l14.67-38.16a13.17 13.17 0 0 1 10.6-8.5 12.88 12.88 0 0 1 13.58 8.16l14.81 38.5a6.42 6.42 0 0 0 3.7 3.7l38.5 14.81a12.88 12.88 0 0 1 0 24.04l-38.5 14.81a6.4 6.4 0 0 0-3.7 3.7l-14.81 38.5a12.88 12.88 0 0 1-12.02 8.25M303.06 510.89a16.26 16.26 0 0 1-15.17-10.43l-23.21-60.34a8.13 8.13 0 0 0-4.68-4.68l-60.34-23.21a16.26 16.26 0 0 1 0-30.35L260 358.67a8.13 8.13 0 0 0 4.68-4.68l23.04-59.92a16.72 16.72 0 0 1 13.39-10.74 16.26 16.26 0 0 1 17.14 10.32l23.21 60.34a8.13 8.13 0 0 0 4.68 4.68l60.34 23.21a16.26 16.26 0 0 1 0 30.35l-60.34 23.21a8.13 8.13 0 0 0-4.68 4.68l-23.21 60.34a16.26 16.26 0 0 1-15.17 10.43z" fill="url(#bq1)"/></g></svg>