<svg xmlns="http://www.w3.org/2000/svg" xmlns:xlink="http://www.w3.org/1999/xlink" viewBox="0 0 64 64"><defs><linearGradient id="a" x1="4" y1="12" x2="60" y2="12" gradientUnits="userSpaceOnUse"><stop offset="0" stop-color="#54a5ff"/><stop offset="1" stop-color="#8ad3fe"/></linearGradient><linearGradient id="d" y1="56" y2="56" xlink:href="#a"/><linearGradient id="b" x1="4.5" y1="40.5" x2="17.5" y2="27.5" gradientUnits="userSpaceOnUse"><stop offset="0" stop-color="#d3e6f5"/><stop offset="1" stop-color="#f0f7fc"/></linearGradient><linearGradient id="e" x1="18.5" y1="40.5" x2="31.5" y2="27.5" xlink:href="#b"/><linearGradient id="f" x1="32.5" y1="40.5" x2="45.5" y2="27.5" xlink:href="#b"/><linearGradient id="g" x1="46.5" y1="40.5" x2="59.5" y2="27.5" xlink:href="#b"/><linearGradient id="h" x1="4.5" y1="28.5" x2="17.5" y2="15.5" xlink:href="#b"/><linearGradient id="i" x1="18.5" y1="28.5" x2="31.5" y2="15.5" xlink:href="#b"/><linearGradient id="j" x1="32.5" y1="28.5" x2="45.5" y2="15.5" xlink:href="#b"/><linearGradient id="k" x1="46.5" y1="28.5" x2="59.5" y2="15.5" xlink:href="#b"/><linearGradient id="l" x1="4.5" y1="52.5" x2="17.5" y2="39.5" xlink:href="#b"/><linearGradient id="m" x1="18.5" y1="52.5" x2="31.5" y2="39.5" xlink:href="#b"/><linearGradient id="n" x1="32.5" y1="52.5" x2="45.5" y2="39.5" xlink:href="#b"/><linearGradient id="o" x1="46.5" y1="52.5" x2="59.5" y2="39.5" xlink:href="#b"/><linearGradient id="c" x1="47" y1="8" x2="51" y2="8" gradientUnits="userSpaceOnUse"><stop offset="0" stop-color="#fe9661"/><stop offset="1" stop-color="#ffb369"/></linearGradient><linearGradient id="p" x1="39" x2="43" xlink:href="#c"/><linearGradient id="q" x1="21" x2="25" xlink:href="#c"/><linearGradient id="r" x1="13" x2="17" xlink:href="#c"/><linearGradient id="s" x1="21" y1="34" x2="29" y2="34" xlink:href="#c"/><linearGradient id="t" x1="35" y1="46" x2="43" y2="46" xlink:href="#c"/><linearGradient id="u" x1="49" y1="22" x2="57" y2="22" xlink:href="#c"/></defs><path d="M60 12v4H4v-4a4 4 0 0 1 4-4h5v2a2 2 0 0 0 2 2 2 2 0 0 0 2-2V8h4v2a2 2 0 0 0 2 2 2 2 0 0 0 2-2V8h14v2a2 2 0 0 0 2 2 2 2 0 0 0 2-2V8h4v2a2 2 0 0 0 2 2 2 2 0 0 0 2-2V8h5a4 4 0 0 1 4 4" style="fill:url(#a)"/><path d="M60 52v4a4 4 0 0 1-4 4H8a4 4 0 0 1-4-4v-4Z" style="fill:url(#d)"/><path style="fill:url(#b)" d="M4 28h14v12H4z"/><path style="fill:url(#e)" d="M18 28h14v12H18z"/><path style="fill:url(#f)" d="M32 28h14v12H32z"/><path style="fill:url(#g)" d="M46 28h14v12H46z"/><path style="fill:url(#h)" d="M4 16h14v12H4z"/><path style="fill:url(#i)" d="M18 16h14v12H18z"/><path style="fill:url(#j)" d="M32 16h14v12H32z"/><path style="fill:url(#k)" d="M46 16h14v12H46z"/><path style="fill:url(#l)" d="M4 40h14v12H4z"/><path style="fill:url(#m)" d="M18 40h14v12H18z"/><path style="fill:url(#n)" d="M32 40h14v12H32z"/><path style="fill:url(#o)" d="M46 40h14v12H46z"/><path d="M51 6v4a2 2 0 0 1-2 2 2 2 0 0 1-2-2V6a2 2 0 0 1 4 0" style="fill:url(#c)"/><path d="M43 6v4a2 2 0 0 1-2 2 2 2 0 0 1-2-2V6a2 2 0 0 1 4 0" style="fill:url(#p)"/><path d="M25 6v4a2 2 0 0 1-2 2 2 2 0 0 1-2-2V6a2 2 0 0 1 4 0" style="fill:url(#q)"/><path d="M17 6v4a2 2 0 0 1-2 2 2 2 0 0 1-2-2V6a2 2 0 0 1 4 0" style="fill:url(#r)"/><path d="M24 37a1 1 0 0 1-.71-.29l-2-2a1 1 0 0 1 1.42-1.42l1.29 1.3 3.29-3.3a1 1 0 0 1 1.42 1.42l-4 4A1 1 0 0 1 24 37" style="fill:url(#s)"/><path d="M38 49a1 1 0 0 1-.71-.29l-2-2a1 1 0 0 1 1.42-1.42l1.29 1.3 3.29-3.3a1 1 0 0 1 1.42 1.42l-4 4A1 1 0 0 1 38 49" style="fill:url(#t)"/><path d="M52 25a1 1 0 0 1-.71-.29l-2-2a1 1 0 0 1 1.42-1.42l1.29 1.3 3.29-3.3a1 1 0 0 1 1.42 1.42l-4 4A1 1 0 0 1 52 25" style="fill:url(#u)"/></svg>