<svg version="1.0" xmlns="http://www.w3.org/2000/svg" viewBox="0 0 108 108"><path d="M23.3 1.7c-1.3.5.2 3.4 12.2 23.7l7.1 11.9-2.6 2.6-2.5 2.6-6.4-3.8c-6.1-3.7-6.6-3.8-7.8-2.1-1.1 1.6-.6 2.1 5.7 5.6 6.8 3.8 6.9 3.8 5.8 6.8l-1 3H16.9C.7 52 0 52.1 0 54s.7 2 16.9 2h16.9l1 3c1.1 2.9 1 3-5.9 6.8-6.2 3.4-6.8 4-5.6 5.6 1.2 1.7 1.7 1.6 7.3-1.8 3.2-2 6.2-3.6 6.7-3.6.4 0 1.6.9 2.7 2 1.9 1.9 1.9 2-4.2 12.2-3.4 5.7-7.6 12.8-9.3 15.8s-3.9 6.6-4.8 8c-1.5 2.4-1.5 2.5.8 2.6 2 .2 3.7-2.1 12.5-17.2C40.6 79.8 45.3 72 45.5 72c.1 0 1.6.5 3.4 1.1l3.1 1.1v7.4c0 6.7.2 7.4 2 7.4s2-.7 2-7.4v-7.4l3.7-1.3c2.6-.8 3.8-.9 4.1-.1.2.6 2.5 4.8 5.2 9.2 2.7 4.5 7 12 9.6 16.6s5 8.4 5.3 8.4 1.2-.4 1.9-.9c1-.6-1.3-5.2-9.1-18.6-10-17.3-10.3-17.9-8.5-19.7 2.4-2.4 2.5-2.4 9.3 1.8 5.5 3.3 6 3.4 7.2 1.8 1.1-1.6.5-2.2-5.7-5.6-6.8-3.8-6.9-3.8-5.8-6.8l1-3h16.9c16.2 0 16.9-.1 16.9-2s-.7-2-16.9-2H74.2l-1-3c-1.1-3-1-3 5.8-6.8 6.2-3.4 6.8-4 5.7-5.6-1.2-1.6-1.7-1.5-7.4 1.9l-6.2 3.7-3-2.3-3.1-2.2 1.9-3.1c1.1-1.7 5.7-9.7 10.4-17.8C85.1 3.3 85.7 2 83.8 1.5c-1.1-.4-2.1-.5-2.2-.3-.1.1-4.2 7.3-9.1 15.8-4.8 8.5-9.3 16.2-9.8 17.1-.8 1.4-1.6 1.5-3.9.7-2.7-1-2.8-1.2-2.8-8.4 0-6.7-.2-7.4-2-7.4s-2 .7-2 7.4c0 7.3-.1 7.4-2.9 8.4l-2.9 1-9.9-17.1C30.8 9.3 25.9 1.5 25.4 1.4s-1.4 0-2.1.3M61 40.2c4.8 2.5 9 8.9 9 13.8 0 1.4-1 4.6-2.2 7-2.5 4.8-8.9 9-13.8 9-1.4 0-4.6-1-7-2.3-4.8-2.4-9-8.8-9-13.7s4.2-11.3 9-13.8c2.4-1.2 5.6-2.2 7-2.2s4.6 1 7 2.2"/><path d="M51.4 52.4c-1 2.6.4 4.8 2.8 4.4 3.3-.4 3.3-5.2 0-5.6-1.3-.2-2.5.3-2.8 1.2m0-42c-1 2.6.4 4.8 2.8 4.4 1.7-.2 2.3-1 2.3-2.8s-.6-2.6-2.3-2.8c-1.3-.2-2.5.3-2.8 1.2m-36 21c-1 2.6.4 4.8 2.8 4.4 1.7-.2 2.3-1 2.3-2.8s-.6-2.6-2.3-2.8c-1.3-.2-2.5.3-2.8 1.2m72 0c-1 2.6.4 4.8 2.8 4.4 1.7-.2 2.3-1 2.3-2.8s-.6-2.6-2.3-2.8c-1.3-.2-2.5.3-2.8 1.2m-72 42c-1 2.6.4 4.8 2.8 4.4 3.3-.4 3.3-5.2 0-5.6-1.3-.2-2.5.3-2.8 1.2m72 0c-1 2.6.4 4.8 2.8 4.4 1.7-.2 2.3-1 2.3-2.8s-.6-2.6-2.3-2.8c-1.3-.2-2.5.3-2.8 1.2m-36 21c-1 2.6.4 4.8 2.8 4.4 3.3-.4 3.3-5.2 0-5.6-1.3-.2-2.5.3-2.8 1.2"/></svg>