<svg xmlns="http://www.w3.org/2000/svg" viewBox="0 0 48.8 75.6">
  <defs>
    <linearGradient id="a1e" x1="-727.56" y1="-85.85" x2="-728.05" y2="-85.8" gradientTransform="matrix(20.22 0 0 47.23 14733.51 4089.2)" gradientUnits="userSpaceOnUse">
      <stop offset="0" stop-color="#7dd2f7"/>
      <stop offset="1" stop-color="#b1e4fa"/>
    </linearGradient>
    <linearGradient id="c1e" x1="-739.45" y1="-52.96" x2="-738.44" y2="-52.28" gradientTransform="matrix(30.5 0 0 16.66 22572.77 885.64)" gradientUnits="userSpaceOnUse">
      <stop offset="0" stop-color="#33bef2"/>
      <stop offset=".75" stop-color="#88e1b8"/>
    </linearGradient>
    <linearGradient id="d1e" x1="-714.38" y1="-32.72" x2="-714.13" y2="-32.47" gradientTransform="matrix(14.33 0 0 11.99 10248.5 397.99)" href="#a"/>
    <linearGradient id="e1e" x1="-729.33" y1="1.21" x2="-728.5" y2="2.72" gradientTransform="matrix(20.88 0 0 8.09 15237.47 -3.56)" gradientUnits="userSpaceOnUse">
      <stop offset="0" stop-color="#33bef2"/>
      <stop offset=".85" stop-color="#88e1b8"/>
    </linearGradient>
    <linearGradient id="f1e" x1="-735.59" y1="-87.98" x2="-735.96" y2="-87.43" gradientTransform="matrix(26.53 0 0 53.4 19531.2 4732.97)" gradientUnits="userSpaceOnUse">
      <stop offset="0" stop-color="#00aeff"/>
      <stop offset="1" stop-color="#88e1b8"/>
    </linearGradient>
    <linearGradient id="b1e" x1="-739.41" y1="-23.92" x2="-739.41" y2="-23.2" gradientTransform="matrix(31.1 0 0 10.63 23011.22 315.2)" gradientUnits="userSpaceOnUse">
      <stop offset="0" stop-color="#d1d3d5"/>
      <stop offset="1" stop-color="#f6f7f8"/>
    </linearGradient>
    <linearGradient id="g1e" x1="-736.18" y1="-56.27" x2="-735.3" y2="-57.07" gradientTransform="matrix(26.53 0 0 18.16 19531.2 1089.37)" gradientUnits="userSpaceOnUse">
      <stop offset="0" stop-color="#f6f7f8" stop-opacity=".4"/>
      <stop offset="1" stop-color="#f0f2f4" stop-opacity="0"/>
    </linearGradient>
    <linearGradient id="h1e" x1="-739.41" y1="-20.59" x2="-739.41" y2="-20.05" gradientTransform="matrix(31.1 0 0 10.21 23011.22 277.76)" href="#b"/>
    <linearGradient id="i1e" x1="-731.44" y1="-89.1" x2="-729.95" y2="-88.63" gradientTransform="matrix(21.89 0 0 56.51 16019.62 5058.67)" gradientUnits="userSpaceOnUse">
      <stop offset=".08" stop-color="#fdb814"/>
      <stop offset=".35" stop-color="#ffe966"/>
      <stop offset=".75" stop-color="#f6f7f8"/>
      <stop offset="1" stop-color="#f0f2f4"/>
    </linearGradient>
  </defs>
  <path d="m26.5 59.2-7.7-45.9L6.3 12Z" fill="url(#a1e)"/>
  <path d="m18.3 6.2 30.5 10.5L20.5 0Z" fill="url(#c1e)"/>
  <path d="m6.2 12 12.1-5.9L20.5 0Z" fill="url(#d1e)"/>
  <path d="m6.2 12 20.9 2.2-8.8-8.1Z" fill="url(#e1e)"/>
  <path d="m27.1 14.2 21.7 2.4L18.3 6.2Z" fill="#0070c5"/>
  <path d="m0 65.4 26.5-6.2L6.2 12Z" fill="url(#f1e)"/>
  <path d="m26.5 59.2 4.6 10.6L0 65.4Z" fill="url(#b1e)"/>
  <path d="m26.5 59.2-5.1-12L0 65.4Z" fill="url(#g1e)"/>
  <path d="m31.1 69.8-8.7 5.8L0 65.4Z" fill="url(#h1e)"/>
  <path d="m27.1 14.2 13.5 34.4-9.5 21.3-4.6-10.6-7.8-45.9Z" fill="url(#i1e)"/>
</svg>