<svg viewBox="0 0 800 807" xmlns="http://www.w3.org/2000/svg"><radialGradient id="fb1" cx="101.925" cy="809.008" gradientTransform="matrix(800 0 0 -799.9985 -81386 648000.75)" gradientUnits="userSpaceOnUse" r="1.09"><stop offset="0" stop-color="#09f"/><stop offset=".61" stop-color="#a033ff"/><stop offset=".935" stop-color="#ff5280"/><stop offset="1" stop-color="#ff7061"/></radialGradient><rect width="800" height="807" rx="100" ry="100" fill="#fff"/><path d="M400 100c-168.975 0-300 123.825-300 291 0 87.45 35.85 163.05 94.2 215.25 4.875 4.35 7.875 10.5 8.025 17.1l1.65 53.4c.525 17.025 18.075 28.125 33.675 21.225l59.55-26.25c5.025-2.25 10.725-2.625 16.05-1.2 27.375 7.5 56.475 11.55 86.85 11.55 168.975 0 300-123.825 300-291S568.975 100 400 100" fill="url(#fb1)"/><path d="m219.85 476.125 88.125-139.8c14.025-22.275 44.025-27.75 65.1-12L443.2 376.9c6.45 4.8 15.3 4.8 21.675-.075l94.65-71.85c12.6-9.6 29.1 5.55 20.7 18.975l-88.2 139.725c-14.025 22.275-44.025 27.75-65.1 12L356.8 423.1c-6.45-4.8-15.3-4.8-21.675.075l-94.65 71.85c-12.6 9.6-29.1-5.475-20.625-18.9" fill="#fff"/></svg>