<svg viewBox="70 70 373 373" xmlns="http://www.w3.org/2000/svg"><path fill="#fff" d="M331 115.22a66.92 66.92 0 0 1 66.65 66.65v148.26A66.92 66.92 0 0 1 331 396.78H181a66.92 66.92 0 0 1-66.65-66.65V181.87A66.92 66.92 0 0 1 181 115.22zm0-31H181c-53.71 0-97.66 44-97.66 97.66v148.25c0 53.71 44 97.66 97.66 97.66h150c53.71 0 97.66-44 97.66-97.66V181.87c0-53.71-43.95-97.66-97.66-97.66Z" /><path fill="#fff" d="M256 198.13A57.87 57.87 0 1 1 198.13 256 57.94 57.94 0 0 1 256 198.13m0-31A88.87 88.87 0 1 0 344.87 256 88.87 88.87 0 0 0 256 167.13"/><circle fill="#fff" cx="346.81" cy="163.23" r="21.07"/></svg>