<svg viewBox="0 0 106 106" xmlns="http://www.w3.org/2000/svg"><g transform="translate(53 53)"><path stroke="#fff" stroke-linejoin="round" fill="#fff" d="M-8.5-14.5h13c8 0 8 8 0 8h-13Zm-31 37h40v-11h-9v-8h10c11 0 5 19 14 19h25v-19h-6v2c0 8-9 7-10 2s-5-9-6-9c15-8 6-24-6-24h-47v11h10v26h-15Z"/><g mask="url(#ar)"><circle r="43" fill="none" stroke="#fff" stroke-width="9"/><path id="br" stroke="#fff" fill="#fff" stroke-width="3" stroke-linejoin="round" d="m46 3 5-3-5-3z"/><use href="#br" transform="rotate(11.25)"/><use href="#br" transform="rotate(22.5)"/><use href="#br" transform="rotate(33.75)"/><use href="#br" transform="rotate(45)"/><use href="#br" transform="rotate(56.25)"/><use href="#br" transform="rotate(67.5)"/><use href="#br" transform="rotate(78.75)"/><use href="#br" transform="rotate(90)"/><use href="#br" transform="rotate(101.25)"/><use href="#br" transform="rotate(112.5)"/><use href="#br" transform="rotate(123.75)"/><use href="#br" transform="rotate(135)"/><use href="#br" transform="rotate(146.25)"/><use href="#br" transform="rotate(157.5)"/><use href="#br" transform="rotate(168.75)"/><use href="#br" transform="rotate(180)"/><use href="#br" transform="rotate(191.25)"/><use href="#br" transform="rotate(202.5)"/><use href="#br" transform="rotate(213.75)"/><use href="#br" transform="rotate(225)"/><use href="#br" transform="rotate(236.25)"/><use href="#br" transform="rotate(247.5)"/><use href="#br" transform="rotate(258.75)"/><use href="#br" transform="rotate(270)"/><use href="#br" transform="rotate(281.25)"/><use href="#br" transform="rotate(292.5)"/><use href="#br" transform="rotate(303.75)"/><use href="#br" transform="rotate(315)"/><use href="#br" transform="rotate(326.25)"/><use href="#br" transform="rotate(337.5)"/><use href="#br" transform="rotate(348.75)"/><path id="cr" stroke="#fff" stroke-width="6" stroke-linejoin="round" d="m-7-42 7 7 7-7z"/><use href="#cr" transform="rotate(72)"/><use href="#cr" transform="rotate(144)"/><use href="#cr" transform="rotate(216)"/><use href="#cr" transform="rotate(288)"/></g><mask id="ar"><path fill="#fff" d="M-60-60H60V60H-60z"/><circle id="dr" cy="-40" r="3"/><use href="#dr" transform="rotate(72)"/><use href="#dr" transform="rotate(144)"/><use href="#dr" transform="rotate(216)"/><use href="#dr" transform="rotate(288)"/></mask></g></svg>