<svg viewBox="0 0 102.5 101" fill="none" xmlns="http://www.w3.org/2000/svg"><path d="M85.194 46.25a35 35 0 0 1-1.543 4.306l-10.37-.216q.002.313-.007.626l28.187.59a50 50 0 0 0-.137-4.97l-16.133-.336zM63.434 1.68l-.283.703a36 36 0 0 1 4.533 2.073L57.654 29.32q.917.28 1.823.646l.087.037 10.544-26.14q-.046-.018-.087-.037a51 51 0 0 0-6.587-2.146m10.083 6.73a36.5 36.5 0 0 1 3.55 3.373l-14.31 19.833q.752.46 1.454.97l16.496-22.86a50 50 0 0 0-5.603-3.513l-1.587 2.2zm7.573 8.646a36 36 0 0 1 2.287 4.254l-16.26 13.81q.51.528.984 1.093l21.486-18.25a50 50 0 0 0-4.286-4.48l-4.207 3.573zm12.274 6-7.957 3.967a36 36 0 0 1 .904 4.683l-15.86 7.907q.291.52.553 1.05L96.227 28.09a50 50 0 0 0-2.866-5.034zm-6.777 14.01c-.033 1.58-.17 3.14-.403 4.667l-13.633 3.06c.076.293.15.587.213.883l27.503-6.173a51 51 0 0 0-1.453-5.183l-12.227 2.743zm14.13 22.024-18.796-5.054a37 37 0 0 1-2.327 3.594l-6.973-1.874q-.059.234-.124.467l27.22 7.317q.604-2.22.997-4.454zM77.47 60.26q-1.291 1.456-2.733 2.763l-4.053-2.237q-.096.18-.197.36l24.68 13.617a51 51 0 0 0 1.857-3.713L77.467 60.26zm-5.086 4.73q-1.392 1.064-2.883 1.993l-1.917-1.77q-.105.119-.217.237l20.707 19.13q1.27-1.366 2.44-2.837l-18.13-16.75zm9.163 25.486L66.987 68.41q-.864.443-1.753.843s-1.07.46-1.313.56l14.903 22.583q1.394-.915 2.727-1.92zM61.447 70.7c-.246.076-1.81.53-2.273.643 0 0-.437.107-.557.133l9.35 26.297a50 50 0 0 0 2.73-1.057l-9.25-26.02zm-5.619 1.276q-1.23.264-2.49.387l2.813 28.05a52 52 0 0 0 2.496-.31l-2.82-28.123zm-5.704.46q-1.05-.053-2.1-.206l-3.983 27.91q1.046.15 2.093.26l3.99-27.96zm-32.856-17.86a35 35 0 0 1 1.543-4.306l10.37.216c0-.21 0-.416.006-.626l-28.186-.59a49 49 0 0 0 .136 4.97l16.134.336zm21.762 44.57.284-.703a36 36 0 0 1-4.533-2.073l10.03-24.864q-.916-.28-1.824-.646l-.086-.037-10.544 26.14q.046.018.087.037a51 51 0 0 0 6.587 2.146m-10.087-6.73a36.5 36.5 0 0 1-3.55-3.373l14.31-19.833q-.751-.46-1.453-.97L21.754 91.1a50 50 0 0 0 5.604 3.513l1.586-2.2zM21.37 83.77a36 36 0 0 1-2.286-4.254l16.26-13.81q-.509-.529-.983-1.093l-21.487 18.25a50 50 0 0 0 4.287 4.48l4.206-3.573zm-12.27-6 7.958-3.967a36 36 0 0 1-.904-4.683l15.86-7.907a23 23 0 0 1-.553-1.05L6.234 72.736a50 50 0 0 0 2.867 5.034m6.773-14.01c.033-1.58.17-3.14.403-4.667l13.634-3.06q-.117-.44-.214-.883L2.194 61.32a51 51 0 0 0 1.453 5.183l12.23-2.743zM1.744 41.736l18.797 5.054a37 37 0 0 1 2.326-3.594l6.974 1.874q.06-.234.123-.467l-27.223-7.32a50 50 0 0 0-.997 4.453m23.246-1.17q1.292-1.456 2.734-2.763l4.053 2.237q.096-.18.197-.36L7.294 26.06a51 51 0 0 0-1.856 3.713l19.556 10.79zm5.09-4.73a37 37 0 0 1 2.884-1.993l1.917 1.77q.106-.118.216-.237l-20.706-19.13q-1.27 1.366-2.44 2.837l18.13 16.75zM20.918 10.35l14.56 22.066q.864-.443 1.753-.843s1.07-.46 1.313-.56L23.644 8.43a51 51 0 0 0-2.726 1.92m20.096 19.776c.247-.076 1.81-.53 2.273-.643 0 0 .437-.107.557-.133l-9.35-26.297q-1.38.489-2.73 1.057l9.25 26.02zm5.62-1.276q1.23-.264 2.49-.387L46.314.413a52 52 0 0 0-2.496.31l2.82 28.123zm5.706-.46q1.05.053 2.1.206L58.42.686q-1.046-.15-2.093-.26l-3.99 27.96z" fill="#000"/></svg>