<svg viewBox="5 10 510 430" class="w-9 h-9 -mt-1 text-link dark:text-link-dark" fill="none" xmlns="http://www.w3.org/2000/svg"><g clip-path="url(#a)"><mask id="b" style="mask-type:luminance" maskUnits="userSpaceOnUse" x="246" y="369" width="117" height="49"><path d="m246.285 417.848 75.457-5.885s25.806-4.204 40.954-29.146l-53.297-12.891z" fill="#fff"/></mask><g mask="url(#b)"><path d="m371.952 371.888-13.744 68.66-121.46-24.662 14.025-68.66z" fill="url(#c)"/></g><mask id="d" style="mask-type:luminance" maskUnits="userSpaceOnUse" x="77" y="241" width="286" height="147"><path d="M141.937 241.012c-22.441 1.121-63.956 5.045-63.956 5.045l180.927 131.436 41.235 10.369 62.553-4.764-182.049-131.717s-14.587-10.369-35.625-10.369z" fill="#fff"/></mask><g mask="url(#d)"><path d="M157.645 515.654 11.781 282.209l270.97-168.989 146.144 233.445z" fill="url(#e)"/></g><mask id="f" style="mask-type:luminance" maskUnits="userSpaceOnUse" x="375" y="167" width="120" height="48"><path d="m375.319 214.949 77.7-4.764s26.648-3.923 41.796-28.585l-55.26-13.732z" fill="#fff"/></mask><g mask="url(#f)"><path d="m403.65 265.674-48.528-86.876 111.361-61.935 48.528 86.877z" fill="url(#g)"/></g><mask id="h" style="mask-type:luminance" maskUnits="userSpaceOnUse" x="199" y="35" width="297" height="151"><path d="M265.36 35.591c-23.282.841-65.919 4.204-65.919 4.204l188.5 134.519 42.637 10.929 64.517-3.923L305.472 46.521s-15.708-10.93-37.868-10.93z" fill="#fff"/></mask><g mask="url(#h)"><path d="m447.689-72.584 102.385 234.006-303.228 132.277L144.461 59.693z" fill="url(#i)"/></g><mask id="j" style="mask-type:luminance" maskUnits="userSpaceOnUse" x="32" y="245" width="267" height="173"><path d="M33.1 275.202c-.28.281-.28.561-.28.841l49.65 35.872 49.088 35.591 82.469 59.693c27.77 19.897 65.358 11.49 84.433-19.337l-50.211-36.152-50.211-36.152-81.628-59.412c-10.098-7.287-21.318-10.65-32.538-10.65-19.636 0-38.99 10.369-50.772 29.706" fill="#fff"/></mask><g mask="url(#j)"><path d="M384.856 307.711 207.295 553.207-53.577 364.881l177.281-245.496z" fill="url(#k)"/></g><mask id="l" style="mask-type:luminance" maskUnits="userSpaceOnUse" x="154" y="39" width="277" height="177"><path d="M155.401 68.66c0 .28-.281.561-.561.841l51.613 36.713 51.614 36.432 85.835 61.094c28.892 20.458 67.602 12.33 86.676-18.217l-52.174-37.272-52.174-36.993-85.274-60.814c-10.66-7.566-22.721-11.21-34.503-11.21-19.916.28-39.271 10.37-51.052 29.426" fill="#fff"/></mask><g mask="url(#l)"><path d="m489.765 60.814-91.164 251.661L95.653 202.619l91.445-251.662z" fill="url(#m)"/></g><mask id="n" style="mask-type:luminance" maskUnits="userSpaceOnUse" x="118" y="106" width="283" height="231"><path d="m118.935 110.137 66.48 72.864c3.086 4.204 6.452 8.127 10.379 11.49l129.594 142.366 64.517-3.924c19.074-30.547 11.22-72.023-17.672-92.481l-85.835-61.094-51.333-36.432-51.613-36.712z" fill="#fff"/></mask><g mask="url(#n)"><path d="M224.967 476.7 7.574 190.568 303.228-33.349l217.113 286.132z" fill="url(#o)"/></g><mask id="p" style="mask-type:luminance" maskUnits="userSpaceOnUse" x="108" y="110" width="228" height="227"><path d="M118.374 110.978c-18.794 30.266-10.94 71.182 17.391 91.36l84.994 60.534 52.455 36.992 52.174 36.993c19.075-30.547 11.22-72.024-17.672-92.482l-85.554-60.813-51.614-36.713-51.613-36.712c0 .28-.281.561-.561.841" fill="#fff"/></mask><g mask="url(#p)"><path d="M436.189 156.658 294.532 435.784 8.135 290.896 149.79 11.49z" fill="url(#q)"/></g></g><defs><linearGradient id="c" x1="379.737" y1="23.184" x2="280.4" y2="513.227" gradientUnits="userSpaceOnUse"><stop stop-color="#1593F5"/><stop offset="1" stop-color="#0084CE"/></linearGradient><linearGradient id="e" x1="370.003" y1="553.992" x2="-46.452" y2="-113.902" gradientUnits="userSpaceOnUse"><stop stop-color="#1593F5"/><stop offset="1" stop-color="#0084CE"/></linearGradient><linearGradient id="g" x1="643.99" y1="565.235" x2="393.19" y2="115.271" gradientUnits="userSpaceOnUse"><stop stop-color="#fff"/><stop offset="1" stop-color="#15ABFF"/></linearGradient><linearGradient id="i" x1="199.455" y1="-227.399" x2="412.368" y2="260.387" gradientUnits="userSpaceOnUse"><stop stop-color="#fff"/><stop offset="1" stop-color="#79CFFF"/></linearGradient><linearGradient id="k" x1="438.927" y1="-41.821" x2="100.518" y2="427.18" gradientUnits="userSpaceOnUse"><stop stop-color="#0057E5"/><stop offset="1" stop-color="#0084CE"/></linearGradient><linearGradient id="m" x1="362.245" y1="-59.545" x2="255.798" y2="234.049" gradientUnits="userSpaceOnUse"><stop stop-color="#fff"/><stop offset="1" stop-color="#15ABFF"/></linearGradient><linearGradient id="o" x1="495.1" y1="526.08" x2="-39.75" y2="-179.82" gradientUnits="userSpaceOnUse"><stop stop-color="#fff"/><stop offset="1" stop-color="#79CFFF"/></linearGradient><linearGradient id="q" x1="401.836" y1="-130.821" x2="127.393" y2="411.47" gradientUnits="userSpaceOnUse"><stop stop-color="#fff"/><stop offset="1" stop-color="#79CFFF"/></linearGradient><clipPath id="a"><path fill="#fff" d="M0 0h531v454H0z"/></clipPath></defs></svg>