<svg xmlns="http://www.w3.org/2000/svg" viewBox="100 93 300 300" xml:space="preserve"><linearGradient id="a" gradientUnits="userSpaceOnUse" x1="250" y1="97.156" x2="250" y2="388.844"><stop offset="0" style="stop-color:#4ac14b"/><stop offset="1" style="stop-color:#06853a"/></linearGradient><path style="fill-rule:evenodd;clip-rule:evenodd;fill:url(#a)" d="M347.655 388.845H152.344c-26.504 0-48.189-21.685-48.189-48.189V145.344c0-26.504 21.685-48.189 48.189-48.189h195.311c26.504 0 48.189 21.685 48.189 48.189v195.311c0 26.504-21.685 48.19-48.189 48.19"/><path style="fill-rule:evenodd;clip-rule:evenodd;fill:#fff" d="M349.445 240.442c0 53.499-43.712 96.879-97.633 96.879-17.124 0-33.212-4.373-47.198-12.055l-54.059 17.179 17.621-51.976c-8.892-14.602-14.005-31.726-14.005-50.026 0-53.51 43.711-96.887 97.641-96.887 53.921-.001 97.633 43.376 97.633 96.886m-97.633-81.456c-45.275 0-82.092 36.535-82.092 81.456 0 17.814 5.804 34.325 15.635 47.758l-10.251 30.245 31.54-10.022c12.958 8.502 28.485 13.466 45.167 13.466 45.256 0 82.083-36.538 82.083-81.448.001-44.92-36.826-81.455-82.082-81.455m49.303 103.77c-.605-.992-2.202-1.586-4.586-2.773-2.395-1.185-14.168-6.936-16.359-7.723-2.191-.79-3.798-1.188-5.384 1.185-1.597 2.376-6.185 7.726-7.585 9.312-1.392 1.588-2.785 1.782-5.179.594-2.398-1.185-10.113-3.702-19.251-11.781-7.11-6.304-11.914-14.071-13.317-16.447-1.389-2.373-.138-3.657 1.047-4.842 1.08-1.069 2.397-2.773 3.594-4.154 1.199-1.392 1.597-2.387 2.395-3.972.798-1.586.401-2.967-.204-4.155-.594-1.185-5.384-12.872-7.381-17.632-1.983-4.746-3.981-4.568-5.384-4.568-1.392 0-3.976.414-3.976.414s-4.798.594-6.988 2.97c-2.191 2.373-8.373 8.124-8.373 19.8 0 11.685 8.569 22.983 9.765 24.557 1.199 1.588 16.552 26.35 40.886 35.858 24.334 9.505 24.334 6.334 28.723 5.934 4.381-.387 14.157-5.74 16.154-11.287 1.996-5.55 1.996-10.306 1.403-11.29m0 0"/></svg>