<svg xmlns="http://www.w3.org/2000/svg" viewBox="0 0 600 600"><defs><linearGradient id="wha" x1="270.265" y1="1.184" x2="270.265" y2="541.56" gradientUnits="userSpaceOnUse"><stop offset="0" stop-color="#20B038"/><stop offset="1" stop-color="#60D66A"/></linearGradient></defs><rect width="600" height="600" rx="100" ry="100" fill="#fff"/><path fill="url(#wha)" d="M313.32 498.26c-35.47.01-70.1-9.26-100.62-26.88l-104.31 28.56 27.99-106.74c-16.03-29.4-24.49-62.51-24.5-96.2v-.09c0-110.96 90.3-201.29 201.28-201.34 53.78-.02 104.35 20.9 142.39 58.92 38.04 38.01 59.01 88.56 59.03 142.42 0 110.98-90.29 201.3-201.27 201.34"/><path d="M261.97 205.09c-3.9-8.68-8.01-8.85-11.73-9-3.04-.13-6.52-.12-9.99-.12s-9.12 1.3-13.9 6.52c-4.78 5.21-18.24 17.82-18.24 43.46s18.68 50.42 21.28 53.9c2.61 3.48 36.05 57.77 89.02 78.66 44.02 17.36 52.98 13.91 62.53 13.04s30.83-12.6 35.17-24.77 4.34-22.6 3.04-24.78c-1.3-2.17-4.78-3.47-9.99-6.08s-30.83-15.22-35.61-16.95-8.25-2.61-11.73 2.61c-3.47 5.21-13.46 16.95-16.5 20.42-3.04 3.48-6.08 3.92-11.29 1.31s-22-8.11-41.91-25.86c-15.49-13.81-25.95-30.87-28.99-36.09-3.04-5.21-.32-8.04 2.29-10.63 2.34-2.33 5.21-6.08 7.82-9.13 2.6-3.04 3.47-5.21 5.21-8.69s.87-6.52-.43-9.13-11.43-28.38-16.07-38.68" fill="#FFF"/></svg>