<svg viewBox="0 0 357.129 84.864" xmlns="http://www.w3.org/2000/svg" color="currentColor"><path d="M233.545 56.983V27.442q0-5.587.768-9.785a31 31 0 0 1 .624-2.74q1.391-5.005 3.662-8.008t5.029-4.492a19 19 0 0 1 3.448-1.461 16 16 0 0 1 2.07-.492 35 35 0 0 1 2.814-.362A27 27 0 0 1 254.248 0q4.483 0 7.667 1.158a13 13 0 0 1 2.538 1.235q3.76 2.392 5.396 6.421a22.4 22.4 0 0 1 1.533 6.495 27 27 0 0 1 .102 2.367 31 31 0 0 1-.131 2.89 24 24 0 0 1-.284 2.066 338 338 0 0 1-.445 2.387 448 448 0 0 1-.507 2.618h-9.765v-4.004a44 44 0 0 0-.209-4.488q-.95-9.233-6.237-9.233a6.3 6.3 0 0 0-2.547.496q-1.423.62-2.424 2.014a8 8 0 0 0-.327.493 9 9 0 0 0-.874 2.051q-.643 2.132-.854 5.444a56 56 0 0 0-.103 3.516v37.598a52 52 0 0 0 .108 3.471q.218 3.24.883 5.281a8 8 0 0 0 .84 1.843 5.98 5.98 0 0 0 4.368 2.741 9 9 0 0 0 1.321.091 5.28 5.28 0 0 0 4.019-1.769 7 7 0 0 0 .424-.501q1.604-2.072 1.745-6.442a27 27 0 0 0 .013-.858v-7.91h11.084v7.715a36 36 0 0 1-.386 5.454q-.434 2.804-1.352 5.042a14.5 14.5 0 0 1-2.705 4.348 14.3 14.3 0 0 1-7.072 4.147q-2.279.601-4.987.676a28 28 0 0 1-.783.011 24 24 0 0 1-3.375-.248 33 33 0 0 1-3.241-.631 15.3 15.3 0 0 1-4.762-2.109 19.5 19.5 0 0 1-2.05-1.553q-3.223-2.784-5.273-8.374a28.5 28.5 0 0 1-1.209-4.508q-.421-2.226-.632-4.841a70 70 0 0 1-.21-5.617M95.313 84.131V.733h13.72a56 56 0 0 1 3.028.085 75 75 0 0 1 3.32.257 29.6 29.6 0 0 1 6.885 1.538 18.2 18.2 0 0 1 6.161 3.68l.089.079a15.7 15.7 0 0 1 2.769 3.359q.947 1.52 1.697 3.375l.099.249a22.5 22.5 0 0 1 1.122 3.981q.611 3.195.611 7.225v2.099q0 18.75-11.279 24.122l13.721 33.349h-13.477L112.305 52.93h-4.346v31.201zm103.466 0V54.883L182.471.733h12.744l9.668 40.234h.586L215.137.733h12.695l-16.406 54.15v29.248zm-156.396 0L57.91.733h14.258l15.576 83.398H75.049L72.754 69.19h-15.43l-2.197 14.941zm231.933 0L289.844.733h14.258l15.576 83.398h-12.696l-2.294-14.941h-15.43l-2.197 14.941zm-119.531 0V10.694h-13.428V.733h39.454v9.961h-13.379v73.437zm172.461 0V.733h12.647V74.17h17.236v9.961zM0 84.131V.733h12.646a52 52 0 0 1 3.022.091 69 69 0 0 1 3.302.275 27.5 27.5 0 0 1 6.753 1.62l.107.04a17.8 17.8 0 0 1 5.322 3.204 21 21 0 0 1 .952.873q2.684 2.615 4.355 6.996a29 29 0 0 1 .211.573 26 26 0 0 1 1.074 4.133q.387 2.152.538 4.661a56 56 0 0 1 .097 3.364v2.929a67 67 0 0 1-.214 5.519q-.369 4.444-1.373 7.812a32 32 0 0 1-1.4 3.833q-.865 1.947-1.927 3.494a17 17 0 0 1-.897 1.193 19.7 19.7 0 0 1-2.973 2.943 16 16 0 0 1-2.91 1.842 23.4 23.4 0 0 1-5.222 1.847 21 21 0 0 1-1.346.253 45 45 0 0 1-3.901.434 36 36 0 0 1-2.349.079h-1.221v25.39zm58.789-24.463h12.5L65.332 17.92h-.537zm231.934 0h12.5l-5.957-41.748h-.537zM12.646 49.463h.635a18 18 0 0 0 3.356-.289q4.223-.8 6.141-3.812a12.8 12.8 0 0 0 1.378-3.084q.96-3.08 1.173-7.681a60 60 0 0 0 .062-2.761v-7.519a36 36 0 0 0-.195-3.866q-.499-4.545-2.271-7.072-2.466-3.515-9.644-3.515h-.635zm95.313-5.664h1.66a23 23 0 0 0 3.288-.214q3.819-.545 5.777-2.479a7 7 0 0 0 .481-.53q2.185-2.695 2.542-9.01a46 46 0 0 0 .07-2.611v-6.591a27 27 0 0 0-.195-3.356q-.462-3.656-2.021-5.793a8 8 0 0 0-.249-.324 6.6 6.6 0 0 0-2.453-1.815q-2.196-.999-5.686-1.175a31 31 0 0 0-1.554-.037h-1.66z" fill="currentColor"/></svg>