<svg viewBox="0 0 375 75" fill="none" xmlns="http://www.w3.org/2000/svg"><g filter="url(#ax1)"><path d="M28.143 49.535A2.81 2.81 0 0 1 25.5 47.73l-4.509-11.721a1.8 1.8 0 0 0-1.038-1.038l-11.72-4.509a2.826 2.826 0 0 1 0-5.276l11.72-4.509a1.82 1.82 0 0 0 1.038-1.037L25.5 7.919a2.825 2.825 0 0 1 5.276 0l4.509 11.72a1.8 1.8 0 0 0 1.038 1.038l11.65 4.483a2.89 2.89 0 0 1 1.885 2.73 2.81 2.81 0 0 1-1.806 2.581l-11.72 4.509a1.8 1.8 0 0 0-1.038 1.038l-4.51 11.72a2.81 2.81 0 0 1-2.642 1.806zm30.924-2.337a1.59 1.59 0 0 1-1.483-1.02l-1.831-4.762a.78.78 0 0 0-.454-.454l-4.761-1.831a1.587 1.587 0 0 1 0-2.974l4.761-1.831a.78.78 0 0 0 .454-.454l1.814-4.718a1.63 1.63 0 0 1 1.308-1.046 1.59 1.59 0 0 1 1.674 1.011l1.832 4.762a.8.8 0 0 0 .453.453l4.762 1.832a1.587 1.587 0 0 1 0 2.974l-4.762 1.831a.8.8 0 0 0-.453.454l-1.832 4.761a1.59 1.59 0 0 1-1.482 1.02m-15.733 21.42a2.01 2.01 0 0 1-1.875-1.292l-2.869-7.456a1 1 0 0 0-.576-.576l-7.456-2.869a2.006 2.006 0 0 1 0-3.75l7.456-2.869a1 1 0 0 0 .576-.576l2.843-7.404a2.07 2.07 0 0 1 1.657-1.325 2.005 2.005 0 0 1 2.12 1.273l2.868 7.456a1 1 0 0 0 .576.576l7.456 2.87a2.006 2.006 0 0 1 0 3.75l-7.456 2.868a1 1 0 0 0-.576.576l-2.869 7.456a2.01 2.01 0 0 1-1.875 1.291m189.088-2.6a276 276 0 0 1 2.921-7.439q1.457-3.688 2.852-7.3a3627 3627 0 0 0-6.672-16.203 7868 7868 0 0 1-6.601-16.133h12.165a2437 2437 0 0 0 3.689 9.034 1466 1466 0 0 0 3.619 9.105 973 973 0 0 1 3.41-9.105q1.745-4.587 3.41-9.034h11.957a7517 7517 0 0 0-9.384 23.502 2598 2598 0 0 1-9.314 23.573zm-132.873 0H88.073V18.951h11.476v2.014a13.6 13.6 0 0 1 3.689-2.084l.279-.07a13.9 13.9 0 0 1 4.588-.837h.139q3.48 0 6.602 1.386 3.13 1.317 5.564 3.829a17.7 17.7 0 0 1 3.34 5.145q.219.414.419.838a19.8 19.8 0 0 1 1.186 5.145q.137 1.282.139 2.573c.01 1.611-.153 3.22-.488 4.796-.205.97-.485 1.924-.837 2.852a18.8 18.8 0 0 1-2.852 4.936q-.431.577-.907 1.116a17.7 17.7 0 0 1-5.564 3.89q-3.13 1.386-6.672 1.386a14 14 0 0 1-3.689-.488q-.529-.116-1.046-.28a13.8 13.8 0 0 1-3.89-2.293v13.222m164.992-34.003a22 22 0 0 0-.558 4.867 22.6 22.6 0 0 0 .209 3.34 17.9 17.9 0 0 0 1.945 5.982 17.2 17.2 0 0 0 5.982 6.393 18.3 18.3 0 0 0 3.619 1.805 22 22 0 0 0 5.285 1.186 24 24 0 0 0 2.364.07q4.029 0 8.485-1.317V43.64a21 21 0 0 1-3.061 1.187 15 15 0 0 1-4.238.627q-.21.005-.419 0a12 12 0 0 1-1.805-.209 8.55 8.55 0 0 1-4.239-2.084 6.4 6.4 0 0 1-1.116-1.256q-.698-1.116-1.046-2.573a12 12 0 0 1-.21-2.433q-.006-.313 0-.628a10 10 0 0 1 .419-2.433 6.74 6.74 0 0 1 1.945-3.27 8.5 8.5 0 0 1 3.2-1.736c.926-.285 1.884-.45 2.852-.488q.245-.005.488 0 1.875 0 3.829.488a19.5 19.5 0 0 1 3.41 1.317V19.44q-4.448-1.317-8.486-1.317-1.184.01-2.363.14-1.26.107-2.503.348a19.3 19.3 0 0 0-6.392 2.573q-3.83 2.433-5.983 6.462a17.5 17.5 0 0 0-1.596 4.378M155.189 54.898v-2.084a13.5 13.5 0 0 1-3.959 2.294 13.4 13.4 0 0 1-4.099.767q-.279.004-.558 0-3.55 0-6.672-1.317-3.13-1.386-5.564-3.96a18.2 18.2 0 0 1-3.479-5.423q-.144-.277-.28-.559a19.8 19.8 0 0 1-1.186-5.145 25 25 0 0 1-.139-2.573 23.5 23.5 0 0 1 .419-4.447c.201-1.139.504-2.257.906-3.34a18.3 18.3 0 0 1 2.434-4.378q.612-.803 1.316-1.527a16.9 16.9 0 0 1 5.564-3.828 16.1 16.1 0 0 1 6.602-1.387c1.46-.017 2.914.195 4.308.628q.212.1.419.21a13.9 13.9 0 0 1 3.549 1.805q.213.17.419.349v-2.015h11.477v35.948h-11.477zm167.494 0v-2.084a13.8 13.8 0 0 1-3.889 2.294 13.4 13.4 0 0 1-4.727.767q-3.549 0-6.672-1.317-3.13-1.386-5.564-3.96a18.2 18.2 0 0 1-3.479-5.423 22 22 0 0 1-.21-.559 19.8 19.8 0 0 1-1.255-5.145 24 24 0 0 1-.14-2.573 23.5 23.5 0 0 1 .419-4.447c.223-1.141.55-2.259.976-3.34a18.3 18.3 0 0 1 2.364-4.378q.611-.803 1.317-1.527a16.9 16.9 0 0 1 5.564-3.828 16.1 16.1 0 0 1 6.601-1.387c1.46-.017 2.914.195 4.309.628q.21.1.418.21a13.9 13.9 0 0 1 3.55 1.805q.212.17.418.349v-2.015h11.477v35.948h-11.477zm-117.157 0V29.241h-5.634v-10.29h5.634V9.358h11.477v9.593h6.532v10.29h-6.532v25.657zm136.622 0 .48-45.27h10.997v45.27zm-167.843 0V18.951h11.477v1.944a15.6 15.6 0 0 1 4.517-2.154l.349-.14q2.642-.766 5.774-.418h.139v11.268q-4.448-.629-7.02.418a6 6 0 0 0-1.117.558 5.57 5.57 0 0 0-2.502 3.69 9 9 0 0 0-.14 1.805v18.985h-11.477zm-26.215-9.174q3.34 0 5.355-2.433a8.45 8.45 0 0 0 1.665-3.48q.35-1.255.349-2.712v-.21c0-.888-.094-1.773-.279-2.642q-.348-1.805-1.256-3.13a8 8 0 0 0-.488-.559 6.54 6.54 0 0 0-5.355-2.433 8 8 0 0 0-2.433.349 6.33 6.33 0 0 0-2.991 2.014 8.1 8.1 0 0 0-1.526 3.062 12 12 0 0 0-.419 2.642q-.007.348 0 .698c.003.888.097 1.773.279 2.642q.279 1.665 1.117 2.922.248.472.558.907a6.44 6.44 0 0 0 4.726 2.363q.35.015.698 0m167.494 0q3.34 0 5.355-2.433a8.46 8.46 0 0 0 1.666-3.48q.348-1.255.348-2.712v-.21c0-.888-.094-1.773-.279-2.642q-.349-1.805-1.255-3.13a8 8 0 0 0-.489-.559 6.53 6.53 0 0 0-5.354-2.433 8 8 0 0 0-2.434.349 6.33 6.33 0 0 0-2.991 2.014 8.1 8.1 0 0 0-1.526 3.062 12 12 0 0 0-.419 2.642q-.007.348 0 .698c.003.888.097 1.773.279 2.642q.28 1.665 1.117 2.922.248.472.558.907a6.45 6.45 0 0 0 4.727 2.363q.349.015.697 0m-208.936 0q3.41 0 5.425-2.363a8.3 8.3 0 0 0 1.596-3.27q.279-1.187.348-2.574.007-.314 0-.627a13 13 0 0 0-.209-2.573 10.5 10.5 0 0 0-1.046-2.782 7.5 7.5 0 0 0-.698-1.047 6.46 6.46 0 0 0-4.657-2.363 9 9 0 0 0-.767 0 7.5 7.5 0 0 0-2.573.419 6.45 6.45 0 0 0-2.782 2.014q-2.015 2.364-2.015 6.332c-.005.911.089 1.82.28 2.712q.487 2.154 1.735 3.689a6.55 6.55 0 0 0 4.727 2.433q.313.01.628 0" fill="url(#bx1)"/></g><defs><linearGradient id="bx1" x1="185.521" y1="6.105" x2="174.523" y2="68.625" gradientUnits="userSpaceOnUse"><stop stop-color="#BCC4CC"/><stop offset="1" stop-color="#C4C8F0"/></linearGradient><filter id="ax1" x="4.419" y="4.105" width="349.206" height="64.52" filterUnits="userSpaceOnUse" color-interpolation-filters="sRGB"><feFlood flood-opacity="0" result="BackgroundImageFix"/><feBlend in="SourceGraphic" in2="BackgroundImageFix" result="shape"/><feColorMatrix in="SourceAlpha" values="0 0 0 0 0 0 0 0 0 0 0 0 0 0 0 0 0 0 127 0" result="hardAlpha"/><feOffset dx="-2" dy="-2"/><feGaussianBlur stdDeviation="2.5"/><feComposite in2="hardAlpha" operator="arithmetic" k2="-1" k3="1"/><feColorMatrix values="0 0 0 0 1 0 0 0 0 1 0 0 0 0 1 0 0 0 0.5 0"/><feBlend in2="shape"/></filter></defs></svg>