<svg viewBox="0 4 430 80" xmlns="http://www.w3.org/2000/svg">
<defs>
<linearGradient id="bz2" x1="600" y1="100" x2="0" y2="0" gradientUnits="userSpaceOnUse">
<stop stop-color="#D7DDE8"/>
<stop offset="1" stop-color="#C4C8F0"/>
</linearGradient>
<filter id="az2" filterUnits="userSpaceOnUse" color-interpolation-filters="sRGB">
<feFlood flood-opacity="0" result="BackgroundImageFix"/>
<feColorMatrix in="SourceAlpha" values="0 0 0 0 0 0 0 0 0 0 0 0 0 0 0 0 0 0 127 0" result="hardAlpha"/>
<feOffset dx="6" dy="6"/>
<feGaussianBlur stdDeviation="8"/>
<feColorMatrix values="0 0 0 0 0.67451 0 0 0 0 0.686275 0 0 0 0 0.815686 0 0 0 0.35 0"/>
<feBlend in2="BackgroundImageFix" result="effect1"/>
<feBlend in="SourceGraphic" in2="effect1" result="shape"/>
<feColorMatrix in="SourceAlpha" values="0 0 0 0 0 0 0 0 0 0 0 0 0 0 0 0 0 0 127 0" result="hardAlpha"/>
<feOffset dx="-10" dy="-10"/>
<feGaussianBlur stdDeviation="10"/>
<feComposite in2="hardAlpha" operator="arithmetic" k2="-1" k3="1"/>
<feColorMatrix values="0 0 0 0 1 0 0 0 0 1 0 0 0 0 1 0 0 0 0.24 0"/>
<feBlend in2="shape" result="effect2"/>
</filter>
</defs>
<g filter="url(#az2)" fill="url(#bz2)">
<path d="M32.27 56.8a3.22 3.22 0 0 1-3.03-2.07l-5.17-13.44a2.08 2.08 0 0 0-1.19-1.19L9.44 34.93a3.24 3.24 0 0 1 0-6.05l13.44-5.17a2.08 2.08 0 0 0 1.19-1.19l5.17-13.44a3.24 3.24 0 0 1 6.05 0l5.17 13.44a2.08 2.08 0 0 0 1.19 1.19l13.36 5.14a3.31 3.31 0 0 1 2.16 3.13 3.22 3.22 0 0 1-2.07 2.96l-13.44 5.17a2.08 2.08 0 0 0-1.19 1.19L35.3 54.74a3.22 3.22 0 0 1-3.03 2.07zm35.46-2.68a1.82 1.82 0 0 1-1.7-1.17l-2.1-5.46a.9.9 0 0 0-.52-.52l-5.46-2.1a1.82 1.82 0 0 1 0-3.41l5.46-2.1a.9.9 0 0 0 .52-.52l2.08-5.41a1.87 1.87 0 0 1 1.5-1.2 1.82 1.82 0 0 1 1.92 1.16l2.1 5.46a.9.9 0 0 0 .52.52l5.46 2.1a1.82 1.82 0 0 1 0 3.41l-5.46 2.1a.9.9 0 0 0-.52.52l-2.1 5.46a1.82 1.82 0 0 1-1.7 1.17M49.69 78.69a2.3 2.3 0 0 1-2.15-1.48l-3.29-8.55a1.15 1.15 0 0 0-.66-.66l-8.55-3.29a2.3 2.3 0 0 1 0-4.3l8.55-3.29a1.15 1.15 0 0 0 .66-.66l3.26-8.49a2.37 2.37 0 0 1 1.9-1.52 2.3 2.3 0 0 1 2.43 1.46l3.29 8.55a1.15 1.15 0 0 0 .66.66l8.55 3.29a2.3 2.3 0 0 1 0 4.3L55.79 68a1.15 1.15 0 0 0-.66.66l-3.29 8.55a2.3 2.3 0 0 1-2.15 1.48m216.82-2.98q1.59-4.23 3.35-8.53 1.67-4.23 3.27-8.37-3.75-9.17-7.65-18.58-3.83-9.33-7.57-18.5h13.95q2.07 5.1 4.23 10.36 2.07 5.26 4.15 10.44 1.91-5.18 3.91-10.44t3.91-10.36h13.71q-5.34 13.31-10.76 26.95-5.34 13.71-10.68 27.03h-13.79zm-152.36 0h-13.16V21.73h13.16v2.31a15.6 15.6 0 0 1 4.23-2.39l.32-.08a15.9 15.9 0 0 1 5.26-.96h.16q3.99 0 7.57 1.59 3.59 1.51 6.38 4.39a20.3 20.3 0 0 1 3.83 5.9 24 24 0 0 1 .48.96 22.7 22.7 0 0 1 1.36 5.9 28 28 0 0 1 .16 2.95 25.7 25.7 0 0 1-.56 5.5 22 22 0 0 1-.96 3.27 21.5 21.5 0 0 1-3.27 5.66 20 20 0 0 1-1.04 1.28q-2.79 2.87-6.38 4.46t-7.65 1.59a16 16 0 0 1-4.23-.56 14 14 0 0 1-1.2-.32q-2.47-.96-4.46-2.63V75.7zm189.19-38.99a25.2 25.2 0 0 0-.64 5.58 26 26 0 0 0 .24 3.83 20.5 20.5 0 0 0 2.23 6.86q2.47 4.54 6.86 7.33a21 21 0 0 0 4.15 2.07 25.2 25.2 0 0 0 6.06 1.36 27 27 0 0 0 2.71.08q4.62 0 9.73-1.51V50.04a24 24 0 0 1-3.51 1.36q-2.47.72-4.86.72a16 16 0 0 1-.48 0 13.6 13.6 0 0 1-2.07-.24 9.8 9.8 0 0 1-4.86-2.39 7.3 7.3 0 0 1-1.28-1.44q-.8-1.28-1.2-2.95a13.6 13.6 0 0 1-.24-2.79 16 16 0 0 1 0-.72q.08-1.51.48-2.79a7.73 7.73 0 0 1 2.23-3.75 9.7 9.7 0 0 1 3.67-1.99 12.8 12.8 0 0 1 3.27-.56 15 15 0 0 1 .56 0q2.15 0 4.39.56a22.3 22.3 0 0 1 3.91 1.51V22.29q-5.1-1.51-9.73-1.51a27 27 0 0 0-2.71.16 27 27 0 0 0-2.87.4 22.1 22.1 0 0 0-7.33 2.95q-4.39 2.79-6.86 7.41a20 20 0 0 0-1.83 5.02M177.95 62.95v-2.39q-1.99 1.67-4.54 2.63a15.4 15.4 0 0 1-4.7.88 18 18 0 0 1-.64 0q-4.07 0-7.65-1.51-3.59-1.59-6.38-4.54a20.9 20.9 0 0 1-3.99-6.22 24 24 0 0 1-.32-.64 22.7 22.7 0 0 1-1.36-5.9 28 28 0 0 1-.16-2.95 27 27 0 0 1 .48-5.1 22 22 0 0 1 1.04-3.83 21 21 0 0 1 2.79-5.02 19 19 0 0 1 1.51-1.75q2.79-2.87 6.38-4.39 3.59-1.59 7.57-1.59a16 16 0 0 1 4.94.72 15 15 0 0 1 .48.24 15.9 15.9 0 0 1 4.07 2.07 15 15 0 0 1 .48.4v-2.31h13.16v41.22h-13.16zm192.06 0v-2.39q-1.99 1.67-4.46 2.63a15.4 15.4 0 0 1-4.78.88 18 18 0 0 1-.64 0q-4.07 0-7.65-1.51-3.59-1.59-6.38-4.54a20.9 20.9 0 0 1-3.99-6.22 24 24 0 0 1-.24-.64 22.7 22.7 0 0 1-1.44-5.9 28 28 0 0 1-.16-2.95 27 27 0 0 1 .48-5.1 22 22 0 0 1 1.12-3.83 21 21 0 0 1 2.71-5.02 19 19 0 0 1 1.51-1.75q2.79-2.87 6.38-4.39 3.59-1.59 7.57-1.59a16 16 0 0 1 4.94.72 15 15 0 0 1 .48.24 15.9 15.9 0 0 1 4.07 2.07 15 15 0 0 1 .48.4v-2.31h13.16v41.22h-13.16zm-134.34 0V33.53h-6.46v-11.8h6.46v-11h13.16v11h7.49v11.8h-7.49v29.42zm156.66 0 .55-51.91h12.61v51.91zm-192.46 0V21.73h13.16v2.23a17.9 17.9 0 0 1 5.18-2.47 20 20 0 0 1 .4-.16q3.03-.88 6.62-.48h.16v12.92q-5.1-.72-8.05.48a7 7 0 0 0-1.28.64 6.38 6.38 0 0 0-2.87 4.23 10.4 10.4 0 0 0-.16 2.07v21.77h-13.16zm-30.06-10.52q3.83 0 6.14-2.79a9.7 9.7 0 0 0 1.91-3.99q.4-1.44.4-3.11v-.24a14.6 14.6 0 0 0-.32-3.03q-.4-2.07-1.44-3.59a9 9 0 0 0-.56-.64 7.5 7.5 0 0 0-5.5-2.79 10 10 0 0 0-.64 0 9.1 9.1 0 0 0-2.79.4 7.26 7.26 0 0 0-3.43 2.31 9.25 9.25 0 0 0-1.75 3.51q-.4 1.44-.48 3.03a18 18 0 0 0 0 .8 15 15 0 0 0 .32 3.03q.32 1.91 1.28 3.35a9 9 0 0 0 .64 1.04 7.4 7.4 0 0 0 5.42 2.71 10 10 0 0 0 .8 0m192.06 0q3.83 0 6.14-2.79a9.7 9.7 0 0 0 1.91-3.99q.4-1.44.4-3.11v-.24a14.6 14.6 0 0 0-.32-3.03q-.4-2.07-1.44-3.59a9 9 0 0 0-.56-.64 7.5 7.5 0 0 0-5.5-2.79 10 10 0 0 0-.64 0 9.1 9.1 0 0 0-2.79.4 7.26 7.26 0 0 0-3.43 2.31 9.25 9.25 0 0 0-1.75 3.51q-.4 1.44-.48 3.03a18 18 0 0 0 0 .8 15 15 0 0 0 .32 3.03q.32 1.91 1.28 3.35a9 9 0 0 0 .64 1.04 7.4 7.4 0 0 0 5.42 2.71 10 10 0 0 0 .8 0m-239.58 0q3.91 0 6.22-2.71a9.5 9.5 0 0 0 1.83-3.75q.32-1.36.4-2.95a18 18 0 0 0 0-.72 15 15 0 0 0-.24-2.95q-.4-1.75-1.2-3.19a8.5 8.5 0 0 0-.8-1.2 7.4 7.4 0 0 0-5.34-2.71 10 10 0 0 0-.88 0 8.6 8.6 0 0 0-2.95.48 7.4 7.4 0 0 0-3.19 2.31q-2.31 2.71-2.31 7.26a14.5 14.5 0 0 0 .32 3.11q.56 2.47 1.99 4.23a7.5 7.5 0 0 0 5.42 2.79 10 10 0 0 0 .72 0"/>
</g>
</svg>